<mxfile host="app.diagrams.net" agent="Mozilla/5.0 (Windows NT 10.0; Win64; x64) AppleWebKit/537.36 (KHTML, like Gecko) Chrome/135.0.0.0 Safari/537.36" version="26.2.14">
  <diagram name="第 1 页" id="cd3JL82luMmbp5FzsaAE">
    <mxGraphModel dx="1144" dy="646" grid="1" gridSize="10" guides="1" tooltips="1" connect="1" arrows="1" fold="1" page="1" pageScale="1" pageWidth="827" pageHeight="1169" math="0" shadow="0">
      <root>
        <mxCell id="0" />
        <mxCell id="1" parent="0" />
        <object originCellId="fcac44abd6ee426edd68cb16c442a8c1" label="" set3rd="" isCellStatic="true" isCopyBySelection="1" copyUuidPrevious="fcac44abd6ee426edd68cb16c442a8c1" copyFromDiagramUuid="916e8c1c09b645d799c474520df8c807" fromDiagramType="personDiagram" id="-8tr_-Q6rccU3uLQnp_V-1">
          <mxCell style="rounded=1;whiteSpace=wrap;html=1;fillColor=#d5e8d4;strokeColor=none" vertex="1" parent="1">
            <mxGeometry x="620" y="249" width="360" height="230" as="geometry" />
          </mxCell>
        </object>
        <object originCellId="5cf90e52851040ffe18fa6471d6e6a29" label="" set3rd="" isCellStatic="true" isCopyBySelection="1" copyUuidPrevious="5cf90e52851040ffe18fa6471d6e6a29" copyFromDiagramUuid="916e8c1c09b645d799c474520df8c807" fromDiagramType="personDiagram" id="-8tr_-Q6rccU3uLQnp_V-2">
          <mxCell style="rounded=1;whiteSpace=wrap;html=1;fillColor=#eeeeee;strokeColor=#36393d" vertex="1" parent="1">
            <mxGeometry x="920" y="200" width="420" height="490" as="geometry" />
          </mxCell>
        </object>
        <object originCellId="5bfcdd58465342dbba8afa7f3e1b0325" label="" set3rd="" isCellStatic="true" isCopyBySelection="1" copyUuidPrevious="5bfcdd58465342dbba8afa7f3e1b0325" copyFromDiagramUuid="916e8c1c09b645d799c474520df8c807" fromDiagramType="personDiagram" id="-8tr_-Q6rccU3uLQnp_V-3">
          <mxCell style="rounded=1;whiteSpace=wrap;html=1;fillColor=#fad7ac;strokeColor=#b46504" vertex="1" parent="1">
            <mxGeometry x="970" y="238" width="350" height="252" as="geometry" />
          </mxCell>
        </object>
        <object originCellId="92a654de6e1e4f13e30f316ae7743e20" label="" set3rd="" isCellStatic="true" isCopyBySelection="1" copyUuidPrevious="92a654de6e1e4f13e30f316ae7743e20" copyFromDiagramUuid="916e8c1c09b645d799c474520df8c807" fromDiagramType="personDiagram" id="-8tr_-Q6rccU3uLQnp_V-4">
          <mxCell style="rounded=1;whiteSpace=wrap;html=1;fillColor=#d5e8d4;strokeColor=#82b366" vertex="1" parent="1">
            <mxGeometry x="990" y="249" width="267" height="230" as="geometry" />
          </mxCell>
        </object>
        <object originCellId="cd6034b452e5435ffe3852dc7fde67f4" label="" set3rd="" isCellStatic="true" isCopyBySelection="1" copyUuidPrevious="cd6034b452e5435ffe3852dc7fde67f4" copyFromDiagramUuid="916e8c1c09b645d799c474520df8c807" fromDiagramType="personDiagram" id="-8tr_-Q6rccU3uLQnp_V-5">
          <mxCell style="rounded=1;whiteSpace=wrap;html=1;fillColor=#eeeeee;strokeColor=#36393d" vertex="1" parent="1">
            <mxGeometry x="260" y="200" width="420" height="490" as="geometry" />
          </mxCell>
        </object>
        <object originCellId="8acd556d74cc451d8d97ca1ad6f18ded" label="" set3rd="" isCellStatic="true" isCopyBySelection="1" copyUuidPrevious="8acd556d74cc451d8d97ca1ad6f18ded" copyFromDiagramUuid="916e8c1c09b645d799c474520df8c807" fromDiagramType="personDiagram" id="-8tr_-Q6rccU3uLQnp_V-6">
          <mxCell style="rounded=1;whiteSpace=wrap;html=1;fillColor=#fad7ac;strokeColor=#b46504" vertex="1" parent="1">
            <mxGeometry x="280" y="238" width="350" height="252" as="geometry" />
          </mxCell>
        </object>
        <object originCellId="f997e20bde5c4d7ce4d979fd0c6aed46" label="" set3rd="" isCellStatic="true" isCopyBySelection="1" copyUuidPrevious="f997e20bde5c4d7ce4d979fd0c6aed46" copyFromDiagramUuid="916e8c1c09b645d799c474520df8c807" fromDiagramType="personDiagram" id="-8tr_-Q6rccU3uLQnp_V-7">
          <mxCell style="rounded=1;whiteSpace=wrap;html=1;fillColor=#d5e8d4;strokeColor=#82b366" vertex="1" parent="1">
            <mxGeometry x="355" y="250" width="255" height="230" as="geometry" />
          </mxCell>
        </object>
        <object originCellId="d81f2b39812648f384961839632de6d6" label="tile0" set3rd="" isCellStatic="true" isCopyBySelection="1" copyUuidPrevious="d81f2b39812648f384961839632de6d6" copyFromDiagramUuid="916e8c1c09b645d799c474520df8c807" fromDiagramType="personDiagram" id="-8tr_-Q6rccU3uLQnp_V-8">
          <mxCell style="text;html=1;align=center;verticalAlign=middle;resizable=0;points=[];autosize=1;strokeColor=none;fillColor=none" vertex="1" parent="1">
            <mxGeometry x="445" y="200" width="50" height="30" as="geometry" />
          </mxCell>
        </object>
        <object originCellId="0c7e74d318304764ff003c44f2dbc31c" label="threads of the proc0 on tile0" set3rd="" isCellStatic="true" isCopyBySelection="1" copyUuidPrevious="0c7e74d318304764ff003c44f2dbc31c" copyFromDiagramUuid="916e8c1c09b645d799c474520df8c807" fromDiagramType="personDiagram" id="-8tr_-Q6rccU3uLQnp_V-9">
          <mxCell style="text;html=1;align=center;verticalAlign=middle;resizable=0;points=[];autosize=1;strokeColor=none;fillColor=none" vertex="1" parent="1">
            <mxGeometry x="387.5" y="260" width="170" height="30" as="geometry" />
          </mxCell>
        </object>
        <object originCellId="d8ff06457feb47369bc88383f304b03d" label="lcore" set3rd="" isCellStatic="true" isCopyBySelection="1" copyUuidPrevious="d8ff06457feb47369bc88383f304b03d" copyFromDiagramUuid="916e8c1c09b645d799c474520df8c807" fromDiagramType="personDiagram" id="-8tr_-Q6rccU3uLQnp_V-10">
          <mxCell style="ellipse;whiteSpace=wrap;html=1;aspect=fixed;fillColor=#e1d5e7;strokeColor=#9673a6" vertex="1" parent="1">
            <mxGeometry x="377.5" y="297.5" width="35" height="35" as="geometry" />
          </mxCell>
        </object>
        <object originCellId="409839412ddb448d84af2f48cb2e8305" label="" set3rd="" isCellStatic="true" isCopyBySelection="1" copyUuidPrevious="409839412ddb448d84af2f48cb2e8305" copyFromDiagramUuid="916e8c1c09b645d799c474520df8c807" fromDiagramType="personDiagram" id="-8tr_-Q6rccU3uLQnp_V-11">
          <mxCell style="group" vertex="1" connectable="0" parent="1">
            <mxGeometry x="420" y="305" width="150" height="20" as="geometry" />
          </mxCell>
        </object>
        <object originCellId="e082aa87dcdd4e8cb2a7dee7f97b0066" label="tcache" set3rd="" isCellStatic="true" isCopyBySelection="1" copyUuidPrevious="e082aa87dcdd4e8cb2a7dee7f97b0066" copyFromDiagramUuid="916e8c1c09b645d799c474520df8c807" fromDiagramType="personDiagram" id="-8tr_-Q6rccU3uLQnp_V-12">
          <mxCell style="rounded=0;whiteSpace=wrap;html=1;fillColor=#fff2cc;strokeColor=#d6b656" vertex="1" parent="-8tr_-Q6rccU3uLQnp_V-11">
            <mxGeometry width="50" height="20" as="geometry" />
          </mxCell>
        </object>
        <object originCellId="cd5bb98bcb1f46288f3ed9a53c2c2413" label="" set3rd="" isCellStatic="true" isCopyBySelection="1" copyUuidPrevious="cd5bb98bcb1f46288f3ed9a53c2c2413" copyFromDiagramUuid="916e8c1c09b645d799c474520df8c807" fromDiagramType="personDiagram" id="-8tr_-Q6rccU3uLQnp_V-13">
          <mxCell style="rounded=0;whiteSpace=wrap;html=1;fillColor=#fff2cc;strokeColor=#d6b656" vertex="1" parent="-8tr_-Q6rccU3uLQnp_V-11">
            <mxGeometry x="50" width="20" height="20" as="geometry" />
          </mxCell>
        </object>
        <object originCellId="92bab739573f409abb153f582160bce2" label="" set3rd="" isCellStatic="true" isCopyBySelection="1" copyUuidPrevious="92bab739573f409abb153f582160bce2" copyFromDiagramUuid="916e8c1c09b645d799c474520df8c807" fromDiagramType="personDiagram" id="-8tr_-Q6rccU3uLQnp_V-14">
          <mxCell style="rounded=0;whiteSpace=wrap;html=1;fillColor=#fff2cc;strokeColor=#d6b656" vertex="1" parent="-8tr_-Q6rccU3uLQnp_V-11">
            <mxGeometry x="70" width="20" height="20" as="geometry" />
          </mxCell>
        </object>
        <object originCellId="28ef82820ccf4f63c3371f05360e75c2" label="" set3rd="" isCellStatic="true" isCopyBySelection="1" copyUuidPrevious="28ef82820ccf4f63c3371f05360e75c2" copyFromDiagramUuid="916e8c1c09b645d799c474520df8c807" fromDiagramType="personDiagram" id="-8tr_-Q6rccU3uLQnp_V-15">
          <mxCell style="rounded=0;whiteSpace=wrap;html=1;fillColor=#fff2cc;strokeColor=#d6b656" vertex="1" parent="-8tr_-Q6rccU3uLQnp_V-11">
            <mxGeometry x="90" width="20" height="20" as="geometry" />
          </mxCell>
        </object>
        <object originCellId="8a8789bfea9443bca1e92787550da04c" label="" set3rd="" isCellStatic="true" isCopyBySelection="1" copyUuidPrevious="8a8789bfea9443bca1e92787550da04c" copyFromDiagramUuid="916e8c1c09b645d799c474520df8c807" fromDiagramType="personDiagram" id="-8tr_-Q6rccU3uLQnp_V-16">
          <mxCell style="rounded=0;whiteSpace=wrap;html=1;fillColor=#fff2cc;strokeColor=#d6b656" vertex="1" parent="-8tr_-Q6rccU3uLQnp_V-11">
            <mxGeometry x="110" width="20" height="20" as="geometry" />
          </mxCell>
        </object>
        <object originCellId="96aa778fe17d43ddab6374262aeac7e1" label="" set3rd="" isCellStatic="true" isCopyBySelection="1" copyUuidPrevious="96aa778fe17d43ddab6374262aeac7e1" copyFromDiagramUuid="916e8c1c09b645d799c474520df8c807" fromDiagramType="personDiagram" id="-8tr_-Q6rccU3uLQnp_V-17">
          <mxCell style="rounded=0;whiteSpace=wrap;html=1;fillColor=#fff2cc;strokeColor=#d6b656" vertex="1" parent="-8tr_-Q6rccU3uLQnp_V-11">
            <mxGeometry x="130" width="20" height="20" as="geometry" />
          </mxCell>
        </object>
        <object originCellId="4ef050cf66d9473ec9c78a18d1df9ffd" label="core0" set3rd="" isCellStatic="true" isCopyBySelection="1" copyUuidPrevious="4ef050cf66d9473ec9c78a18d1df9ffd" copyFromDiagramUuid="916e8c1c09b645d799c474520df8c807" fromDiagramType="personDiagram" id="-8tr_-Q6rccU3uLQnp_V-18">
          <mxCell style="ellipse;whiteSpace=wrap;html=1;aspect=fixed;fillColor=#d0cee2;strokeColor=#56517e" vertex="1" parent="1">
            <mxGeometry x="290" y="297.5" width="40" height="40" as="geometry" />
          </mxCell>
        </object>
        <object originCellId="8ba0dc0f5f1f4ca4af41661361b5ccc2" label="core1" set3rd="" isCellStatic="true" isCopyBySelection="1" copyUuidPrevious="8ba0dc0f5f1f4ca4af41661361b5ccc2" copyFromDiagramUuid="916e8c1c09b645d799c474520df8c807" fromDiagramType="personDiagram" id="-8tr_-Q6rccU3uLQnp_V-19">
          <mxCell style="ellipse;whiteSpace=wrap;html=1;aspect=fixed;fillColor=#d0cee2;strokeColor=#56517e" vertex="1" parent="1">
            <mxGeometry x="290" y="350" width="40" height="40" as="geometry" />
          </mxCell>
        </object>
        <object originCellId="7145569de8404da4953c9901ae18c502" label="..." set3rd="" isCellStatic="true" isCopyBySelection="1" copyUuidPrevious="7145569de8404da4953c9901ae18c502" copyFromDiagramUuid="916e8c1c09b645d799c474520df8c807" fromDiagramType="personDiagram" id="-8tr_-Q6rccU3uLQnp_V-20">
          <mxCell style="text;html=1;align=center;verticalAlign=middle;resizable=0;points=[];autosize=1;strokeColor=none;fillColor=none" vertex="1" parent="1">
            <mxGeometry x="295" y="385" width="30" height="30" as="geometry" />
          </mxCell>
        </object>
        <object originCellId="ef85a5db94f140c7e0fb40797ffe82ff" label="lcore" set3rd="" isCellStatic="true" isCopyBySelection="1" copyUuidPrevious="ef85a5db94f140c7e0fb40797ffe82ff" copyFromDiagramUuid="916e8c1c09b645d799c474520df8c807" fromDiagramType="personDiagram" id="-8tr_-Q6rccU3uLQnp_V-21">
          <mxCell style="ellipse;whiteSpace=wrap;html=1;aspect=fixed;fillColor=#e1d5e7;strokeColor=#9673a6" vertex="1" parent="1">
            <mxGeometry x="377.5" y="337.5" width="35" height="35" as="geometry" />
          </mxCell>
        </object>
        <object originCellId="a8ccaf8d20384e75f203ae4c627d18fb" label="" set3rd="" isCellStatic="true" isCopyBySelection="1" copyUuidPrevious="a8ccaf8d20384e75f203ae4c627d18fb" copyFromDiagramUuid="916e8c1c09b645d799c474520df8c807" fromDiagramType="personDiagram" id="-8tr_-Q6rccU3uLQnp_V-22">
          <mxCell style="group" vertex="1" connectable="0" parent="1">
            <mxGeometry x="420" y="345" width="150" height="20" as="geometry" />
          </mxCell>
        </object>
        <object originCellId="a59a400dbf6d427fb07929c0dd92fd91" label="tcache" set3rd="" isCellStatic="true" isCopyBySelection="1" copyUuidPrevious="a59a400dbf6d427fb07929c0dd92fd91" copyFromDiagramUuid="916e8c1c09b645d799c474520df8c807" fromDiagramType="personDiagram" id="-8tr_-Q6rccU3uLQnp_V-23">
          <mxCell style="rounded=0;whiteSpace=wrap;html=1;fillColor=#fff2cc;strokeColor=#d6b656" vertex="1" parent="-8tr_-Q6rccU3uLQnp_V-22">
            <mxGeometry width="50" height="20" as="geometry" />
          </mxCell>
        </object>
        <object originCellId="086d4128dfb04b7dc5fdb46f9b02cd16" label="" set3rd="" isCellStatic="true" isCopyBySelection="1" copyUuidPrevious="086d4128dfb04b7dc5fdb46f9b02cd16" copyFromDiagramUuid="916e8c1c09b645d799c474520df8c807" fromDiagramType="personDiagram" id="-8tr_-Q6rccU3uLQnp_V-24">
          <mxCell style="rounded=0;whiteSpace=wrap;html=1;fillColor=#fff2cc;strokeColor=#d6b656" vertex="1" parent="-8tr_-Q6rccU3uLQnp_V-22">
            <mxGeometry x="50" width="20" height="20" as="geometry" />
          </mxCell>
        </object>
        <object originCellId="a2009355818d4e07fb57cb1d957cdc8e" label="" set3rd="" isCellStatic="true" isCopyBySelection="1" copyUuidPrevious="a2009355818d4e07fb57cb1d957cdc8e" copyFromDiagramUuid="916e8c1c09b645d799c474520df8c807" fromDiagramType="personDiagram" id="-8tr_-Q6rccU3uLQnp_V-25">
          <mxCell style="rounded=0;whiteSpace=wrap;html=1;fillColor=#fff2cc;strokeColor=#d6b656" vertex="1" parent="-8tr_-Q6rccU3uLQnp_V-22">
            <mxGeometry x="70" width="20" height="20" as="geometry" />
          </mxCell>
        </object>
        <object originCellId="57a64b5f432141f0d2be1a77d6ac6b2b" label="" set3rd="" isCellStatic="true" isCopyBySelection="1" copyUuidPrevious="57a64b5f432141f0d2be1a77d6ac6b2b" copyFromDiagramUuid="916e8c1c09b645d799c474520df8c807" fromDiagramType="personDiagram" id="-8tr_-Q6rccU3uLQnp_V-26">
          <mxCell style="rounded=0;whiteSpace=wrap;html=1;fillColor=#fff2cc;strokeColor=#d6b656" vertex="1" parent="-8tr_-Q6rccU3uLQnp_V-22">
            <mxGeometry x="90" width="20" height="20" as="geometry" />
          </mxCell>
        </object>
        <object originCellId="ed0a1939e7824b0aae10a78c886caab3" label="" set3rd="" isCellStatic="true" isCopyBySelection="1" copyUuidPrevious="ed0a1939e7824b0aae10a78c886caab3" copyFromDiagramUuid="916e8c1c09b645d799c474520df8c807" fromDiagramType="personDiagram" id="-8tr_-Q6rccU3uLQnp_V-27">
          <mxCell style="rounded=0;whiteSpace=wrap;html=1;fillColor=#fff2cc;strokeColor=#d6b656" vertex="1" parent="-8tr_-Q6rccU3uLQnp_V-22">
            <mxGeometry x="110" width="20" height="20" as="geometry" />
          </mxCell>
        </object>
        <object originCellId="dd3ae07baf134323f80ca318293b6862" label="" set3rd="" isCellStatic="true" isCopyBySelection="1" copyUuidPrevious="dd3ae07baf134323f80ca318293b6862" copyFromDiagramUuid="916e8c1c09b645d799c474520df8c807" fromDiagramType="personDiagram" id="-8tr_-Q6rccU3uLQnp_V-28">
          <mxCell style="rounded=0;whiteSpace=wrap;html=1;fillColor=#fff2cc;strokeColor=#d6b656" vertex="1" parent="-8tr_-Q6rccU3uLQnp_V-22">
            <mxGeometry x="130" width="20" height="20" as="geometry" />
          </mxCell>
        </object>
        <object originCellId="5e0ff57508854a6d96b8243fadb7ed1f" label="lcore" set3rd="" isCellStatic="true" isCopyBySelection="1" copyUuidPrevious="5e0ff57508854a6d96b8243fadb7ed1f" copyFromDiagramUuid="916e8c1c09b645d799c474520df8c807" fromDiagramType="personDiagram" id="-8tr_-Q6rccU3uLQnp_V-29">
          <mxCell style="ellipse;whiteSpace=wrap;html=1;aspect=fixed;fillColor=#e1d5e7;strokeColor=#9673a6" vertex="1" parent="1">
            <mxGeometry x="377.5" y="380" width="35" height="35" as="geometry" />
          </mxCell>
        </object>
        <object originCellId="b9f2532582e54401aff1265a47796396" label="" set3rd="" isCellStatic="true" isCopyBySelection="1" copyUuidPrevious="b9f2532582e54401aff1265a47796396" copyFromDiagramUuid="916e8c1c09b645d799c474520df8c807" fromDiagramType="personDiagram" id="-8tr_-Q6rccU3uLQnp_V-30">
          <mxCell style="group" vertex="1" connectable="0" parent="1">
            <mxGeometry x="420" y="387.5" width="150" height="20" as="geometry" />
          </mxCell>
        </object>
        <object originCellId="b1156a9506354f2f83ea96741249c445" label="tcache" set3rd="" isCellStatic="true" isCopyBySelection="1" copyUuidPrevious="b1156a9506354f2f83ea96741249c445" copyFromDiagramUuid="916e8c1c09b645d799c474520df8c807" fromDiagramType="personDiagram" id="-8tr_-Q6rccU3uLQnp_V-31">
          <mxCell style="rounded=0;whiteSpace=wrap;html=1;fillColor=#fff2cc;strokeColor=#d6b656" vertex="1" parent="-8tr_-Q6rccU3uLQnp_V-30">
            <mxGeometry width="50" height="20" as="geometry" />
          </mxCell>
        </object>
        <object originCellId="4b28a26c8f454b46c210c45e1cf894da" label="" set3rd="" isCellStatic="true" isCopyBySelection="1" copyUuidPrevious="4b28a26c8f454b46c210c45e1cf894da" copyFromDiagramUuid="916e8c1c09b645d799c474520df8c807" fromDiagramType="personDiagram" id="-8tr_-Q6rccU3uLQnp_V-32">
          <mxCell style="rounded=0;whiteSpace=wrap;html=1;fillColor=#fff2cc;strokeColor=#d6b656" vertex="1" parent="-8tr_-Q6rccU3uLQnp_V-30">
            <mxGeometry x="50" width="20" height="20" as="geometry" />
          </mxCell>
        </object>
        <object originCellId="e8254b4163624134ac5c9765db101d12" label="" set3rd="" isCellStatic="true" isCopyBySelection="1" copyUuidPrevious="e8254b4163624134ac5c9765db101d12" copyFromDiagramUuid="916e8c1c09b645d799c474520df8c807" fromDiagramType="personDiagram" id="-8tr_-Q6rccU3uLQnp_V-33">
          <mxCell style="rounded=0;whiteSpace=wrap;html=1;fillColor=#fff2cc;strokeColor=#d6b656" vertex="1" parent="-8tr_-Q6rccU3uLQnp_V-30">
            <mxGeometry x="70" width="20" height="20" as="geometry" />
          </mxCell>
        </object>
        <object originCellId="dff75bf766204486dc2f8b4b22af92cb" label="" set3rd="" isCellStatic="true" isCopyBySelection="1" copyUuidPrevious="dff75bf766204486dc2f8b4b22af92cb" copyFromDiagramUuid="916e8c1c09b645d799c474520df8c807" fromDiagramType="personDiagram" id="-8tr_-Q6rccU3uLQnp_V-34">
          <mxCell style="rounded=0;whiteSpace=wrap;html=1;fillColor=#fff2cc;strokeColor=#d6b656" vertex="1" parent="-8tr_-Q6rccU3uLQnp_V-30">
            <mxGeometry x="90" width="20" height="20" as="geometry" />
          </mxCell>
        </object>
        <object originCellId="219307f5cd4f45d8e22998156d513973" label="" set3rd="" isCellStatic="true" isCopyBySelection="1" copyUuidPrevious="219307f5cd4f45d8e22998156d513973" copyFromDiagramUuid="916e8c1c09b645d799c474520df8c807" fromDiagramType="personDiagram" id="-8tr_-Q6rccU3uLQnp_V-35">
          <mxCell style="rounded=0;whiteSpace=wrap;html=1;fillColor=#fff2cc;strokeColor=#d6b656" vertex="1" parent="-8tr_-Q6rccU3uLQnp_V-30">
            <mxGeometry x="110" width="20" height="20" as="geometry" />
          </mxCell>
        </object>
        <object originCellId="fe4b469083bf45ebb30abaf1063142e2" label="" set3rd="" isCellStatic="true" isCopyBySelection="1" copyUuidPrevious="fe4b469083bf45ebb30abaf1063142e2" copyFromDiagramUuid="916e8c1c09b645d799c474520df8c807" fromDiagramType="personDiagram" id="-8tr_-Q6rccU3uLQnp_V-36">
          <mxCell style="rounded=0;whiteSpace=wrap;html=1;fillColor=#fff2cc;strokeColor=#d6b656" vertex="1" parent="-8tr_-Q6rccU3uLQnp_V-30">
            <mxGeometry x="130" width="20" height="20" as="geometry" />
          </mxCell>
        </object>
        <object originCellId="71612ac075e14712ee347d33ea9c02d8" label="lcore" set3rd="" isCellStatic="true" isCopyBySelection="1" copyUuidPrevious="71612ac075e14712ee347d33ea9c02d8" copyFromDiagramUuid="916e8c1c09b645d799c474520df8c807" fromDiagramType="personDiagram" id="-8tr_-Q6rccU3uLQnp_V-37">
          <mxCell style="ellipse;whiteSpace=wrap;html=1;aspect=fixed;fillColor=#e1d5e7;strokeColor=#9673a6" vertex="1" parent="1">
            <mxGeometry x="377.5" y="420" width="35" height="35" as="geometry" />
          </mxCell>
        </object>
        <object originCellId="188f5dfd7062421b9af2315566b80b20" label="" set3rd="" isCellStatic="true" isCopyBySelection="1" copyUuidPrevious="188f5dfd7062421b9af2315566b80b20" copyFromDiagramUuid="916e8c1c09b645d799c474520df8c807" fromDiagramType="personDiagram" id="-8tr_-Q6rccU3uLQnp_V-38">
          <mxCell style="group" vertex="1" connectable="0" parent="1">
            <mxGeometry x="420" y="427.5" width="150" height="20" as="geometry" />
          </mxCell>
        </object>
        <object originCellId="6f8043919a0749cee67e68ad1967f629" label="tcache" set3rd="" isCellStatic="true" isCopyBySelection="1" copyUuidPrevious="6f8043919a0749cee67e68ad1967f629" copyFromDiagramUuid="916e8c1c09b645d799c474520df8c807" fromDiagramType="personDiagram" id="-8tr_-Q6rccU3uLQnp_V-39">
          <mxCell style="rounded=0;whiteSpace=wrap;html=1;fillColor=#fff2cc;strokeColor=#d6b656" vertex="1" parent="-8tr_-Q6rccU3uLQnp_V-38">
            <mxGeometry width="50" height="20" as="geometry" />
          </mxCell>
        </object>
        <object originCellId="60be34b7407c4a49f6b50628ab701655" label="" set3rd="" isCellStatic="true" isCopyBySelection="1" copyUuidPrevious="60be34b7407c4a49f6b50628ab701655" copyFromDiagramUuid="916e8c1c09b645d799c474520df8c807" fromDiagramType="personDiagram" id="-8tr_-Q6rccU3uLQnp_V-40">
          <mxCell style="rounded=0;whiteSpace=wrap;html=1;fillColor=#fff2cc;strokeColor=#d6b656" vertex="1" parent="-8tr_-Q6rccU3uLQnp_V-38">
            <mxGeometry x="50" width="20" height="20" as="geometry" />
          </mxCell>
        </object>
        <object originCellId="3ce825f195b5432ce74644cc598654fb" label="" set3rd="" isCellStatic="true" isCopyBySelection="1" copyUuidPrevious="3ce825f195b5432ce74644cc598654fb" copyFromDiagramUuid="916e8c1c09b645d799c474520df8c807" fromDiagramType="personDiagram" id="-8tr_-Q6rccU3uLQnp_V-41">
          <mxCell style="rounded=0;whiteSpace=wrap;html=1;fillColor=#fff2cc;strokeColor=#d6b656" vertex="1" parent="-8tr_-Q6rccU3uLQnp_V-38">
            <mxGeometry x="70" width="20" height="20" as="geometry" />
          </mxCell>
        </object>
        <object originCellId="afc92616128d43f4ee08b56b7e86b1b2" label="" set3rd="" isCellStatic="true" isCopyBySelection="1" copyUuidPrevious="afc92616128d43f4ee08b56b7e86b1b2" copyFromDiagramUuid="916e8c1c09b645d799c474520df8c807" fromDiagramType="personDiagram" id="-8tr_-Q6rccU3uLQnp_V-42">
          <mxCell style="rounded=0;whiteSpace=wrap;html=1;fillColor=#fff2cc;strokeColor=#d6b656" vertex="1" parent="-8tr_-Q6rccU3uLQnp_V-38">
            <mxGeometry x="90" width="20" height="20" as="geometry" />
          </mxCell>
        </object>
        <object originCellId="65f8ef3407594590ed973ffa7cc5ee39" label="" set3rd="" isCellStatic="true" isCopyBySelection="1" copyUuidPrevious="65f8ef3407594590ed973ffa7cc5ee39" copyFromDiagramUuid="916e8c1c09b645d799c474520df8c807" fromDiagramType="personDiagram" id="-8tr_-Q6rccU3uLQnp_V-43">
          <mxCell style="rounded=0;whiteSpace=wrap;html=1;fillColor=#fff2cc;strokeColor=#d6b656" vertex="1" parent="-8tr_-Q6rccU3uLQnp_V-38">
            <mxGeometry x="110" width="20" height="20" as="geometry" />
          </mxCell>
        </object>
        <object originCellId="66233a54eb444e93cda2302aab4cecd5" label="" set3rd="" isCellStatic="true" isCopyBySelection="1" copyUuidPrevious="66233a54eb444e93cda2302aab4cecd5" copyFromDiagramUuid="916e8c1c09b645d799c474520df8c807" fromDiagramType="personDiagram" id="-8tr_-Q6rccU3uLQnp_V-44">
          <mxCell style="rounded=0;whiteSpace=wrap;html=1;fillColor=#fff2cc;strokeColor=#d6b656" vertex="1" parent="-8tr_-Q6rccU3uLQnp_V-38">
            <mxGeometry x="130" width="20" height="20" as="geometry" />
          </mxCell>
        </object>
        <object originCellId="40d207368911415ab30c4cfb77b5ac2f" label="core3" set3rd="" isCellStatic="true" isCopyBySelection="1" copyUuidPrevious="40d207368911415ab30c4cfb77b5ac2f" copyFromDiagramUuid="916e8c1c09b645d799c474520df8c807" fromDiagramType="personDiagram" id="-8tr_-Q6rccU3uLQnp_V-45">
          <mxCell style="ellipse;whiteSpace=wrap;html=1;aspect=fixed;fillColor=#d0cee2;strokeColor=#56517e" vertex="1" parent="1">
            <mxGeometry x="290" y="417.5" width="40" height="40" as="geometry" />
          </mxCell>
        </object>
        <object originCellId="225c13e3cfc043f3a77e5e7f9ce133fe" label="unit0" set3rd="" isCellStatic="true" isCopyBySelection="1" copyUuidPrevious="225c13e3cfc043f3a77e5e7f9ce133fe" copyFromDiagramUuid="916e8c1c09b645d799c474520df8c807" fromDiagramType="personDiagram" id="-8tr_-Q6rccU3uLQnp_V-46">
          <mxCell style="text;html=1;align=center;verticalAlign=middle;resizable=0;points=[];autosize=1;strokeColor=none;fillColor=none" vertex="1" parent="1">
            <mxGeometry x="285" y="250" width="50" height="30" as="geometry" />
          </mxCell>
        </object>
        <object originCellId="6b304fc28cf44acfd005988bcdc48128" label="" set3rd="" isCellStatic="true" isCopyBySelection="1" copyUuidPrevious="6b304fc28cf44acfd005988bcdc48128" copyFromDiagramUuid="916e8c1c09b645d799c474520df8c807" fromDiagramType="personDiagram" id="-8tr_-Q6rccU3uLQnp_V-47">
          <mxCell style="rounded=1;whiteSpace=wrap;html=1;fillColor=#fad7ac;strokeColor=#b46504" vertex="1" parent="1">
            <mxGeometry x="280" y="525" width="350" height="125" as="geometry" />
          </mxCell>
        </object>
        <object originCellId="393ab4dea54f41b7ad5eea94d152587e" label="unit3" set3rd="" isCellStatic="true" isCopyBySelection="1" copyUuidPrevious="393ab4dea54f41b7ad5eea94d152587e" copyFromDiagramUuid="916e8c1c09b645d799c474520df8c807" fromDiagramType="personDiagram" id="-8tr_-Q6rccU3uLQnp_V-48">
          <mxCell style="text;html=1;align=center;verticalAlign=middle;resizable=0;points=[];autosize=1;strokeColor=none;fillColor=none" vertex="1" parent="1">
            <mxGeometry x="285" y="527" width="50" height="30" as="geometry" />
          </mxCell>
        </object>
        <object originCellId="954241946114415081e88b14899d5da3" label="..." set3rd="" isCellStatic="true" isCopyBySelection="1" copyUuidPrevious="954241946114415081e88b14899d5da3" copyFromDiagramUuid="916e8c1c09b645d799c474520df8c807" fromDiagramType="personDiagram" id="-8tr_-Q6rccU3uLQnp_V-49">
          <mxCell style="text;html=1;align=center;verticalAlign=middle;resizable=0;points=[];autosize=1;strokeColor=none;fillColor=none" vertex="1" parent="1">
            <mxGeometry x="440" y="490" width="30" height="30" as="geometry" />
          </mxCell>
        </object>
        <object originCellId="ebf12c4eba204690d6de879559a4992f" label="tile1" set3rd="" isCellStatic="true" isCopyBySelection="1" copyUuidPrevious="ebf12c4eba204690d6de879559a4992f" copyFromDiagramUuid="916e8c1c09b645d799c474520df8c807" fromDiagramType="personDiagram" id="-8tr_-Q6rccU3uLQnp_V-50">
          <mxCell style="text;html=1;align=center;verticalAlign=middle;resizable=0;points=[];autosize=1;strokeColor=none;fillColor=none" vertex="1" parent="1">
            <mxGeometry x="1098.5" y="200" width="50" height="30" as="geometry" />
          </mxCell>
        </object>
        <object originCellId="2f8b251786a54e55b5d1920704592396" label="" set3rd="" isCellStatic="true" isCopyBySelection="1" copyUuidPrevious="2f8b251786a54e55b5d1920704592396" copyFromDiagramUuid="916e8c1c09b645d799c474520df8c807" fromDiagramType="personDiagram" id="-8tr_-Q6rccU3uLQnp_V-51">
          <mxCell style="group" vertex="1" connectable="0" parent="1">
            <mxGeometry x="1030" y="305" width="150" height="27.5" as="geometry" />
          </mxCell>
        </object>
        <object originCellId="c99f4d0dd0704a8cbf4884437d406ef0" label="tcache" set3rd="" isCellStatic="true" isCopyBySelection="1" copyUuidPrevious="c99f4d0dd0704a8cbf4884437d406ef0" copyFromDiagramUuid="916e8c1c09b645d799c474520df8c807" fromDiagramType="personDiagram" id="-8tr_-Q6rccU3uLQnp_V-52">
          <mxCell style="rounded=0;whiteSpace=wrap;html=1;fillColor=#fff2cc;strokeColor=#d6b656" vertex="1" parent="-8tr_-Q6rccU3uLQnp_V-51">
            <mxGeometry width="50" height="20" as="geometry" />
          </mxCell>
        </object>
        <object originCellId="15fa0e2091474faf8670bcc72494f329" label="" set3rd="" isCellStatic="true" isCopyBySelection="1" copyUuidPrevious="15fa0e2091474faf8670bcc72494f329" copyFromDiagramUuid="916e8c1c09b645d799c474520df8c807" fromDiagramType="personDiagram" id="-8tr_-Q6rccU3uLQnp_V-53">
          <mxCell style="rounded=0;whiteSpace=wrap;html=1;fillColor=#fff2cc;strokeColor=#d6b656" vertex="1" parent="-8tr_-Q6rccU3uLQnp_V-51">
            <mxGeometry x="50" width="20" height="20" as="geometry" />
          </mxCell>
        </object>
        <object originCellId="3568a4f73d3d4473df0c4e0227d4f29d" label="" set3rd="" isCellStatic="true" isCopyBySelection="1" copyUuidPrevious="3568a4f73d3d4473df0c4e0227d4f29d" copyFromDiagramUuid="916e8c1c09b645d799c474520df8c807" fromDiagramType="personDiagram" id="-8tr_-Q6rccU3uLQnp_V-54">
          <mxCell style="rounded=0;whiteSpace=wrap;html=1;fillColor=#fff2cc;strokeColor=#d6b656" vertex="1" parent="-8tr_-Q6rccU3uLQnp_V-51">
            <mxGeometry x="70" width="20" height="20" as="geometry" />
          </mxCell>
        </object>
        <object originCellId="11931d66d8604a718f79bdfd4add4ca4" label="" set3rd="" isCellStatic="true" isCopyBySelection="1" copyUuidPrevious="11931d66d8604a718f79bdfd4add4ca4" copyFromDiagramUuid="916e8c1c09b645d799c474520df8c807" fromDiagramType="personDiagram" id="-8tr_-Q6rccU3uLQnp_V-55">
          <mxCell style="rounded=0;whiteSpace=wrap;html=1;fillColor=#fff2cc;strokeColor=#d6b656" vertex="1" parent="-8tr_-Q6rccU3uLQnp_V-51">
            <mxGeometry x="90" width="20" height="20" as="geometry" />
          </mxCell>
        </object>
        <object originCellId="187324d9b8c54efec52451ea02ee1141" label="" set3rd="" isCellStatic="true" isCopyBySelection="1" copyUuidPrevious="187324d9b8c54efec52451ea02ee1141" copyFromDiagramUuid="916e8c1c09b645d799c474520df8c807" fromDiagramType="personDiagram" id="-8tr_-Q6rccU3uLQnp_V-56">
          <mxCell style="rounded=0;whiteSpace=wrap;html=1;fillColor=#fff2cc;strokeColor=#d6b656" vertex="1" parent="-8tr_-Q6rccU3uLQnp_V-51">
            <mxGeometry x="110" width="20" height="20" as="geometry" />
          </mxCell>
        </object>
        <object originCellId="e3605631e5a7425cf53956ea11c79560" label="" set3rd="" isCellStatic="true" isCopyBySelection="1" copyUuidPrevious="e3605631e5a7425cf53956ea11c79560" copyFromDiagramUuid="916e8c1c09b645d799c474520df8c807" fromDiagramType="personDiagram" id="-8tr_-Q6rccU3uLQnp_V-57">
          <mxCell style="rounded=0;whiteSpace=wrap;html=1;fillColor=#fff2cc;strokeColor=#d6b656" vertex="1" parent="-8tr_-Q6rccU3uLQnp_V-51">
            <mxGeometry x="130" width="20" height="20" as="geometry" />
          </mxCell>
        </object>
        <object originCellId="0323cc2e2f27475bc31edb8473dc9682" label="core0" set3rd="" isCellStatic="true" isCopyBySelection="1" copyUuidPrevious="0323cc2e2f27475bc31edb8473dc9682" copyFromDiagramUuid="916e8c1c09b645d799c474520df8c807" fromDiagramType="personDiagram" id="-8tr_-Q6rccU3uLQnp_V-58">
          <mxCell style="ellipse;whiteSpace=wrap;html=1;aspect=fixed;fillColor=#d0cee2;strokeColor=#56517e" vertex="1" parent="1">
            <mxGeometry x="1270" y="295" width="40" height="40" as="geometry" />
          </mxCell>
        </object>
        <object originCellId="be87f4c499dd4ca183478753622653c0" label="core1" set3rd="" isCellStatic="true" isCopyBySelection="1" copyUuidPrevious="be87f4c499dd4ca183478753622653c0" copyFromDiagramUuid="916e8c1c09b645d799c474520df8c807" fromDiagramType="personDiagram" id="-8tr_-Q6rccU3uLQnp_V-59">
          <mxCell style="ellipse;whiteSpace=wrap;html=1;aspect=fixed;fillColor=#d0cee2;strokeColor=#56517e" vertex="1" parent="1">
            <mxGeometry x="1270" y="350" width="40" height="40" as="geometry" />
          </mxCell>
        </object>
        <object originCellId="8ab2be4f90c54ef9b63266cdcc787fa6" label="..." set3rd="" isCellStatic="true" isCopyBySelection="1" copyUuidPrevious="8ab2be4f90c54ef9b63266cdcc787fa6" copyFromDiagramUuid="916e8c1c09b645d799c474520df8c807" fromDiagramType="personDiagram" id="-8tr_-Q6rccU3uLQnp_V-60">
          <mxCell style="text;html=1;align=center;verticalAlign=middle;resizable=0;points=[];autosize=1;strokeColor=none;fillColor=none" vertex="1" parent="1">
            <mxGeometry x="1275" y="385" width="30" height="30" as="geometry" />
          </mxCell>
        </object>
        <object originCellId="a536550b0d144b469f8ba1f4fd6205d4" label="" set3rd="" isCellStatic="true" isCopyBySelection="1" copyUuidPrevious="a536550b0d144b469f8ba1f4fd6205d4" copyFromDiagramUuid="916e8c1c09b645d799c474520df8c807" fromDiagramType="personDiagram" id="-8tr_-Q6rccU3uLQnp_V-61">
          <mxCell style="group" vertex="1" connectable="0" parent="1">
            <mxGeometry x="1030" y="345" width="150" height="27.5" as="geometry" />
          </mxCell>
        </object>
        <object originCellId="694282e670374c33b8eb9cfc929a8310" label="tcache" set3rd="" isCellStatic="true" isCopyBySelection="1" copyUuidPrevious="694282e670374c33b8eb9cfc929a8310" copyFromDiagramUuid="916e8c1c09b645d799c474520df8c807" fromDiagramType="personDiagram" id="-8tr_-Q6rccU3uLQnp_V-62">
          <mxCell style="rounded=0;whiteSpace=wrap;html=1;fillColor=#fff2cc;strokeColor=#d6b656" vertex="1" parent="-8tr_-Q6rccU3uLQnp_V-61">
            <mxGeometry width="50" height="20" as="geometry" />
          </mxCell>
        </object>
        <object originCellId="a6fd42fe61d740c8a4db2ff3cfbe511c" label="" set3rd="" isCellStatic="true" isCopyBySelection="1" copyUuidPrevious="a6fd42fe61d740c8a4db2ff3cfbe511c" copyFromDiagramUuid="916e8c1c09b645d799c474520df8c807" fromDiagramType="personDiagram" id="-8tr_-Q6rccU3uLQnp_V-63">
          <mxCell style="rounded=0;whiteSpace=wrap;html=1;fillColor=#fff2cc;strokeColor=#d6b656" vertex="1" parent="-8tr_-Q6rccU3uLQnp_V-61">
            <mxGeometry x="50" width="20" height="20" as="geometry" />
          </mxCell>
        </object>
        <object originCellId="7574d7737d8449c7a02df36352e834be" label="" set3rd="" isCellStatic="true" isCopyBySelection="1" copyUuidPrevious="7574d7737d8449c7a02df36352e834be" copyFromDiagramUuid="916e8c1c09b645d799c474520df8c807" fromDiagramType="personDiagram" id="-8tr_-Q6rccU3uLQnp_V-64">
          <mxCell style="rounded=0;whiteSpace=wrap;html=1;fillColor=#fff2cc;strokeColor=#d6b656" vertex="1" parent="-8tr_-Q6rccU3uLQnp_V-61">
            <mxGeometry x="70" width="20" height="20" as="geometry" />
          </mxCell>
        </object>
        <object originCellId="b75241fc64744fb182a502612b78c7cc" label="" set3rd="" isCellStatic="true" isCopyBySelection="1" copyUuidPrevious="b75241fc64744fb182a502612b78c7cc" copyFromDiagramUuid="916e8c1c09b645d799c474520df8c807" fromDiagramType="personDiagram" id="-8tr_-Q6rccU3uLQnp_V-65">
          <mxCell style="rounded=0;whiteSpace=wrap;html=1;fillColor=#fff2cc;strokeColor=#d6b656" vertex="1" parent="-8tr_-Q6rccU3uLQnp_V-61">
            <mxGeometry x="90" width="20" height="20" as="geometry" />
          </mxCell>
        </object>
        <object originCellId="b37c327f55144c9699a88a737ad52e30" label="" set3rd="" isCellStatic="true" isCopyBySelection="1" copyUuidPrevious="b37c327f55144c9699a88a737ad52e30" copyFromDiagramUuid="916e8c1c09b645d799c474520df8c807" fromDiagramType="personDiagram" id="-8tr_-Q6rccU3uLQnp_V-66">
          <mxCell style="rounded=0;whiteSpace=wrap;html=1;fillColor=#fff2cc;strokeColor=#d6b656" vertex="1" parent="-8tr_-Q6rccU3uLQnp_V-61">
            <mxGeometry x="110" width="20" height="20" as="geometry" />
          </mxCell>
        </object>
        <object originCellId="aee863d565864527a7a0d35c530936a0" label="" set3rd="" isCellStatic="true" isCopyBySelection="1" copyUuidPrevious="aee863d565864527a7a0d35c530936a0" copyFromDiagramUuid="916e8c1c09b645d799c474520df8c807" fromDiagramType="personDiagram" id="-8tr_-Q6rccU3uLQnp_V-67">
          <mxCell style="rounded=0;whiteSpace=wrap;html=1;fillColor=#fff2cc;strokeColor=#d6b656" vertex="1" parent="-8tr_-Q6rccU3uLQnp_V-61">
            <mxGeometry x="130" width="20" height="20" as="geometry" />
          </mxCell>
        </object>
        <object originCellId="e65777ee7ef34962ebaeac7c21bb0b40" label="" set3rd="" isCellStatic="true" isCopyBySelection="1" copyUuidPrevious="e65777ee7ef34962ebaeac7c21bb0b40" copyFromDiagramUuid="916e8c1c09b645d799c474520df8c807" fromDiagramType="personDiagram" id="-8tr_-Q6rccU3uLQnp_V-68">
          <mxCell style="group" vertex="1" connectable="0" parent="1">
            <mxGeometry x="1030" y="386.25" width="150" height="27.5" as="geometry" />
          </mxCell>
        </object>
        <object originCellId="2b3abc6854da4620d1a0c14a70e414ef" label="tcache" set3rd="" isCellStatic="true" isCopyBySelection="1" copyUuidPrevious="2b3abc6854da4620d1a0c14a70e414ef" copyFromDiagramUuid="916e8c1c09b645d799c474520df8c807" fromDiagramType="personDiagram" id="-8tr_-Q6rccU3uLQnp_V-69">
          <mxCell style="rounded=0;whiteSpace=wrap;html=1;fillColor=#fff2cc;strokeColor=#d6b656" vertex="1" parent="-8tr_-Q6rccU3uLQnp_V-68">
            <mxGeometry width="50" height="20" as="geometry" />
          </mxCell>
        </object>
        <object originCellId="5f25d471e61b44d286ade90c253af7cd" label="" set3rd="" isCellStatic="true" isCopyBySelection="1" copyUuidPrevious="5f25d471e61b44d286ade90c253af7cd" copyFromDiagramUuid="916e8c1c09b645d799c474520df8c807" fromDiagramType="personDiagram" id="-8tr_-Q6rccU3uLQnp_V-70">
          <mxCell style="rounded=0;whiteSpace=wrap;html=1;fillColor=#fff2cc;strokeColor=#d6b656" vertex="1" parent="-8tr_-Q6rccU3uLQnp_V-68">
            <mxGeometry x="50" width="20" height="20" as="geometry" />
          </mxCell>
        </object>
        <object originCellId="e064cb0dd0e24181c288d7a46a4695f3" label="" set3rd="" isCellStatic="true" isCopyBySelection="1" copyUuidPrevious="e064cb0dd0e24181c288d7a46a4695f3" copyFromDiagramUuid="916e8c1c09b645d799c474520df8c807" fromDiagramType="personDiagram" id="-8tr_-Q6rccU3uLQnp_V-71">
          <mxCell style="rounded=0;whiteSpace=wrap;html=1;fillColor=#fff2cc;strokeColor=#d6b656" vertex="1" parent="-8tr_-Q6rccU3uLQnp_V-68">
            <mxGeometry x="70" width="20" height="20" as="geometry" />
          </mxCell>
        </object>
        <object originCellId="f9ede7399c51490b89b0e5ff45cfcf3c" label="" set3rd="" isCellStatic="true" isCopyBySelection="1" copyUuidPrevious="f9ede7399c51490b89b0e5ff45cfcf3c" copyFromDiagramUuid="916e8c1c09b645d799c474520df8c807" fromDiagramType="personDiagram" id="-8tr_-Q6rccU3uLQnp_V-72">
          <mxCell style="rounded=0;whiteSpace=wrap;html=1;fillColor=#fff2cc;strokeColor=#d6b656" vertex="1" parent="-8tr_-Q6rccU3uLQnp_V-68">
            <mxGeometry x="90" width="20" height="20" as="geometry" />
          </mxCell>
        </object>
        <object originCellId="081176fb23b741a0fc9f0b360fabcdd3" label="" set3rd="" isCellStatic="true" isCopyBySelection="1" copyUuidPrevious="081176fb23b741a0fc9f0b360fabcdd3" copyFromDiagramUuid="916e8c1c09b645d799c474520df8c807" fromDiagramType="personDiagram" id="-8tr_-Q6rccU3uLQnp_V-73">
          <mxCell style="rounded=0;whiteSpace=wrap;html=1;fillColor=#fff2cc;strokeColor=#d6b656" vertex="1" parent="-8tr_-Q6rccU3uLQnp_V-68">
            <mxGeometry x="110" width="20" height="20" as="geometry" />
          </mxCell>
        </object>
        <object originCellId="ac5c444f86ca46ce9d90a364a9754ba0" label="" set3rd="" isCellStatic="true" isCopyBySelection="1" copyUuidPrevious="ac5c444f86ca46ce9d90a364a9754ba0" copyFromDiagramUuid="916e8c1c09b645d799c474520df8c807" fromDiagramType="personDiagram" id="-8tr_-Q6rccU3uLQnp_V-74">
          <mxCell style="rounded=0;whiteSpace=wrap;html=1;fillColor=#fff2cc;strokeColor=#d6b656" vertex="1" parent="-8tr_-Q6rccU3uLQnp_V-68">
            <mxGeometry x="130" width="20" height="20" as="geometry" />
          </mxCell>
        </object>
        <object originCellId="455b8183b6a2406fb33cb98ae6541a6c" label="" set3rd="" isCellStatic="true" isCopyBySelection="1" copyUuidPrevious="455b8183b6a2406fb33cb98ae6541a6c" copyFromDiagramUuid="916e8c1c09b645d799c474520df8c807" fromDiagramType="personDiagram" id="-8tr_-Q6rccU3uLQnp_V-75">
          <mxCell style="group" vertex="1" connectable="0" parent="1">
            <mxGeometry x="1030" y="426.25" width="150" height="27.5" as="geometry" />
          </mxCell>
        </object>
        <object originCellId="08bdec63108547fcec005a15bfaae0b7" label="tcache" set3rd="" isCellStatic="true" isCopyBySelection="1" copyUuidPrevious="08bdec63108547fcec005a15bfaae0b7" copyFromDiagramUuid="916e8c1c09b645d799c474520df8c807" fromDiagramType="personDiagram" id="-8tr_-Q6rccU3uLQnp_V-76">
          <mxCell style="rounded=0;whiteSpace=wrap;html=1;fillColor=#fff2cc;strokeColor=#d6b656" vertex="1" parent="-8tr_-Q6rccU3uLQnp_V-75">
            <mxGeometry width="50" height="20" as="geometry" />
          </mxCell>
        </object>
        <object originCellId="19cb0914523e458ea0534fecca9f994c" label="" set3rd="" isCellStatic="true" isCopyBySelection="1" copyUuidPrevious="19cb0914523e458ea0534fecca9f994c" copyFromDiagramUuid="916e8c1c09b645d799c474520df8c807" fromDiagramType="personDiagram" id="-8tr_-Q6rccU3uLQnp_V-77">
          <mxCell style="rounded=0;whiteSpace=wrap;html=1;fillColor=#fff2cc;strokeColor=#d6b656" vertex="1" parent="-8tr_-Q6rccU3uLQnp_V-75">
            <mxGeometry x="50" width="20" height="20" as="geometry" />
          </mxCell>
        </object>
        <object originCellId="61d7550f270a4821878ad99e8e3a4f5e" label="" set3rd="" isCellStatic="true" isCopyBySelection="1" copyUuidPrevious="61d7550f270a4821878ad99e8e3a4f5e" copyFromDiagramUuid="916e8c1c09b645d799c474520df8c807" fromDiagramType="personDiagram" id="-8tr_-Q6rccU3uLQnp_V-78">
          <mxCell style="rounded=0;whiteSpace=wrap;html=1;fillColor=#fff2cc;strokeColor=#d6b656" vertex="1" parent="-8tr_-Q6rccU3uLQnp_V-75">
            <mxGeometry x="70" width="20" height="20" as="geometry" />
          </mxCell>
        </object>
        <object originCellId="4ca6211cba144d96aa49ac48b2af692f" label="" set3rd="" isCellStatic="true" isCopyBySelection="1" copyUuidPrevious="4ca6211cba144d96aa49ac48b2af692f" copyFromDiagramUuid="916e8c1c09b645d799c474520df8c807" fromDiagramType="personDiagram" id="-8tr_-Q6rccU3uLQnp_V-79">
          <mxCell style="rounded=0;whiteSpace=wrap;html=1;fillColor=#fff2cc;strokeColor=#d6b656" vertex="1" parent="-8tr_-Q6rccU3uLQnp_V-75">
            <mxGeometry x="90" width="20" height="20" as="geometry" />
          </mxCell>
        </object>
        <object originCellId="e7a8e891da004906f374fef522993ce7" label="" set3rd="" isCellStatic="true" isCopyBySelection="1" copyUuidPrevious="e7a8e891da004906f374fef522993ce7" copyFromDiagramUuid="916e8c1c09b645d799c474520df8c807" fromDiagramType="personDiagram" id="-8tr_-Q6rccU3uLQnp_V-80">
          <mxCell style="rounded=0;whiteSpace=wrap;html=1;fillColor=#fff2cc;strokeColor=#d6b656" vertex="1" parent="-8tr_-Q6rccU3uLQnp_V-75">
            <mxGeometry x="110" width="20" height="20" as="geometry" />
          </mxCell>
        </object>
        <object originCellId="ab40f75b42504df0f2d12035d38a87ca" label="" set3rd="" isCellStatic="true" isCopyBySelection="1" copyUuidPrevious="ab40f75b42504df0f2d12035d38a87ca" copyFromDiagramUuid="916e8c1c09b645d799c474520df8c807" fromDiagramType="personDiagram" id="-8tr_-Q6rccU3uLQnp_V-81">
          <mxCell style="rounded=0;whiteSpace=wrap;html=1;fillColor=#fff2cc;strokeColor=#d6b656" vertex="1" parent="-8tr_-Q6rccU3uLQnp_V-75">
            <mxGeometry x="130" width="20" height="20" as="geometry" />
          </mxCell>
        </object>
        <object originCellId="942ccc8176114a4d9bb9d6fedd7e562c" label="core3" set3rd="" isCellStatic="true" isCopyBySelection="1" copyUuidPrevious="942ccc8176114a4d9bb9d6fedd7e562c" copyFromDiagramUuid="916e8c1c09b645d799c474520df8c807" fromDiagramType="personDiagram" id="-8tr_-Q6rccU3uLQnp_V-82">
          <mxCell style="ellipse;whiteSpace=wrap;html=1;aspect=fixed;fillColor=#d0cee2;strokeColor=#56517e" vertex="1" parent="1">
            <mxGeometry x="1270" y="417.5" width="40" height="40" as="geometry" />
          </mxCell>
        </object>
        <object originCellId="b12165c5c9234192b613b51bf5ac7307" label="unit0" set3rd="" isCellStatic="true" isCopyBySelection="1" copyUuidPrevious="b12165c5c9234192b613b51bf5ac7307" copyFromDiagramUuid="916e8c1c09b645d799c474520df8c807" fromDiagramType="personDiagram" id="-8tr_-Q6rccU3uLQnp_V-83">
          <mxCell style="text;html=1;align=center;verticalAlign=middle;resizable=0;points=[];autosize=1;strokeColor=none;fillColor=none" vertex="1" parent="1">
            <mxGeometry x="1260" y="250" width="50" height="30" as="geometry" />
          </mxCell>
        </object>
        <object originCellId="64ef878758ba4770a1abe170f999a9fc" label="" set3rd="" isCellStatic="true" isCopyBySelection="1" copyUuidPrevious="64ef878758ba4770a1abe170f999a9fc" copyFromDiagramUuid="916e8c1c09b645d799c474520df8c807" fromDiagramType="personDiagram" id="-8tr_-Q6rccU3uLQnp_V-84">
          <mxCell style="rounded=1;whiteSpace=wrap;html=1;fillColor=#fad7ac;strokeColor=#b46504" vertex="1" parent="1">
            <mxGeometry x="970" y="525" width="350" height="125" as="geometry" />
          </mxCell>
        </object>
        <object originCellId="0677e7b042744360f211f3429c662c58" label="unit3" set3rd="" isCellStatic="true" isCopyBySelection="1" copyUuidPrevious="0677e7b042744360f211f3429c662c58" copyFromDiagramUuid="916e8c1c09b645d799c474520df8c807" fromDiagramType="personDiagram" id="-8tr_-Q6rccU3uLQnp_V-85">
          <mxCell style="text;html=1;align=center;verticalAlign=middle;resizable=0;points=[];autosize=1;strokeColor=none;fillColor=none" vertex="1" parent="1">
            <mxGeometry x="1265" y="527" width="50" height="30" as="geometry" />
          </mxCell>
        </object>
        <object originCellId="134d5daa58834ccce57add3de85044b1" label="..." set3rd="" isCellStatic="true" isCopyBySelection="1" copyUuidPrevious="134d5daa58834ccce57add3de85044b1" copyFromDiagramUuid="916e8c1c09b645d799c474520df8c807" fromDiagramType="personDiagram" id="-8tr_-Q6rccU3uLQnp_V-86">
          <mxCell style="text;html=1;align=center;verticalAlign=middle;resizable=0;points=[];autosize=1;strokeColor=none;fillColor=none" vertex="1" parent="1">
            <mxGeometry x="1135" y="490" width="30" height="30" as="geometry" />
          </mxCell>
        </object>
        <object originCellId="7004db6af6214ee0e319822853e06483" label="lcore" set3rd="" isCellStatic="true" isCopyBySelection="1" copyUuidPrevious="7004db6af6214ee0e319822853e06483" copyFromDiagramUuid="916e8c1c09b645d799c474520df8c807" fromDiagramType="personDiagram" id="-8tr_-Q6rccU3uLQnp_V-87">
          <mxCell style="ellipse;whiteSpace=wrap;html=1;aspect=fixed;fillColor=#e1d5e7;strokeColor=#9673a6" vertex="1" parent="1">
            <mxGeometry x="1190" y="380" width="35" height="35" as="geometry" />
          </mxCell>
        </object>
        <object originCellId="c84fcbb580524387a4def52fbdeb3fd7" label="lcore" set3rd="" isCellStatic="true" isCopyBySelection="1" copyUuidPrevious="c84fcbb580524387a4def52fbdeb3fd7" copyFromDiagramUuid="916e8c1c09b645d799c474520df8c807" fromDiagramType="personDiagram" id="-8tr_-Q6rccU3uLQnp_V-88">
          <mxCell style="ellipse;whiteSpace=wrap;html=1;aspect=fixed;fillColor=#e1d5e7;strokeColor=#9673a6" vertex="1" parent="1">
            <mxGeometry x="1190" y="422.5" width="35" height="35" as="geometry" />
          </mxCell>
        </object>
        <object originCellId="01a70dc740684e16853711659ba62ba1" label="lcore" set3rd="" isCellStatic="true" isCopyBySelection="1" copyUuidPrevious="01a70dc740684e16853711659ba62ba1" copyFromDiagramUuid="916e8c1c09b645d799c474520df8c807" fromDiagramType="personDiagram" id="-8tr_-Q6rccU3uLQnp_V-89">
          <mxCell style="ellipse;whiteSpace=wrap;html=1;aspect=fixed;fillColor=#e1d5e7;strokeColor=#9673a6" vertex="1" parent="1">
            <mxGeometry x="1190" y="297.5" width="35" height="35" as="geometry" />
          </mxCell>
        </object>
        <object originCellId="a8509e7de24145e9f4c87f51ad45c318" label="lcore" set3rd="" isCellStatic="true" isCopyBySelection="1" copyUuidPrevious="a8509e7de24145e9f4c87f51ad45c318" copyFromDiagramUuid="916e8c1c09b645d799c474520df8c807" fromDiagramType="personDiagram" id="-8tr_-Q6rccU3uLQnp_V-90">
          <mxCell style="ellipse;whiteSpace=wrap;html=1;aspect=fixed;fillColor=#e1d5e7;strokeColor=#9673a6" vertex="1" parent="1">
            <mxGeometry x="1190" y="337.5" width="35" height="35" as="geometry" />
          </mxCell>
        </object>
        <object originCellId="e4ae738de2f34a29b56cb36521f1fb0f" label="" set3rd="" isCellStatic="true" isCopyBySelection="1" copyUuidPrevious="e4ae738de2f34a29b56cb36521f1fb0f" copyFromDiagramUuid="916e8c1c09b645d799c474520df8c807" fromDiagramType="personDiagram" id="-8tr_-Q6rccU3uLQnp_V-91">
          <mxCell style="endArrow=none;dashed=1;html=1;rounded=0;exitX=0.75;exitY=0;exitDx=0;exitDy=0;entryX=0.25;entryY=0;entryDx=0;entryDy=0;fillColor=#d5e8d4;strokeColor=#82b366;t=1745458685883" edge="1" parent="1">
            <mxGeometry width="50" height="50" relative="1" as="geometry">
              <mxPoint x="520" y="479.30999999999995" as="sourcePoint" />
              <mxPoint x="920" y="479.30999999999995" as="targetPoint" />
            </mxGeometry>
          </mxCell>
        </object>
        <object originCellId="814da9cb11d34845cc6f8229012433d3" label="proc0" set3rd="" isCellStatic="true" isCopyBySelection="1" copyUuidPrevious="814da9cb11d34845cc6f8229012433d3" copyFromDiagramUuid="916e8c1c09b645d799c474520df8c807" fromDiagramType="personDiagram" id="-8tr_-Q6rccU3uLQnp_V-92">
          <mxCell style="text;html=1;align=center;verticalAlign=middle;resizable=0;points=[];autosize=1;strokeColor=none;fillColor=none" vertex="1" parent="1">
            <mxGeometry x="775" y="249" width="50" height="30" as="geometry" />
          </mxCell>
        </object>
        <object originCellId="b49f529a9c454c7ff4fb1f9656f7ddac" label="threads of the proc0 on tile1" set3rd="" isCellStatic="true" isCopyBySelection="1" copyUuidPrevious="b49f529a9c454c7ff4fb1f9656f7ddac" copyFromDiagramUuid="916e8c1c09b645d799c474520df8c807" fromDiagramType="personDiagram" id="-8tr_-Q6rccU3uLQnp_V-93">
          <mxCell style="text;html=1;align=center;verticalAlign=middle;resizable=0;points=[];autosize=1;strokeColor=none;fillColor=none" vertex="1" parent="1">
            <mxGeometry x="1044.5" y="260" width="170" height="30" as="geometry" />
          </mxCell>
        </object>
        <object originCellId="1ad6ca72abc94b20e1797ce2560066c1" label="L1" set3rd="" isCellStatic="true" isCopyBySelection="1" copyUuidPrevious="1ad6ca72abc94b20e1797ce2560066c1" copyFromDiagramUuid="916e8c1c09b645d799c474520df8c807" fromDiagramType="personDiagram" id="-8tr_-Q6rccU3uLQnp_V-94">
          <mxCell style="rounded=0;whiteSpace=wrap;html=1;fillColor=#fad9d5;strokeColor=#ae4132" vertex="1" parent="1">
            <mxGeometry x="580" y="305" width="20" height="20" as="geometry" />
          </mxCell>
        </object>
        <object originCellId="fdb4a9742814478de8951fcba042fafb" label="L1" set3rd="" isCellStatic="true" isCopyBySelection="1" copyUuidPrevious="fdb4a9742814478de8951fcba042fafb" copyFromDiagramUuid="916e8c1c09b645d799c474520df8c807" fromDiagramType="personDiagram" id="-8tr_-Q6rccU3uLQnp_V-95">
          <mxCell style="rounded=0;whiteSpace=wrap;html=1;fillColor=#fad9d5;strokeColor=#ae4132" vertex="1" parent="1">
            <mxGeometry x="580" y="345" width="20" height="20" as="geometry" />
          </mxCell>
        </object>
        <object originCellId="034abe95af2b4fc984171f61751aaee8" label="L1" set3rd="" isCellStatic="true" isCopyBySelection="1" copyUuidPrevious="034abe95af2b4fc984171f61751aaee8" copyFromDiagramUuid="916e8c1c09b645d799c474520df8c807" fromDiagramType="personDiagram" id="-8tr_-Q6rccU3uLQnp_V-96">
          <mxCell style="rounded=0;whiteSpace=wrap;html=1;fillColor=#fad9d5;strokeColor=#ae4132" vertex="1" parent="1">
            <mxGeometry x="580" y="387.5" width="20" height="20" as="geometry" />
          </mxCell>
        </object>
        <object originCellId="30acb6c10f344016d666a36c254ace95" label="L1" set3rd="" isCellStatic="true" isCopyBySelection="1" copyUuidPrevious="30acb6c10f344016d666a36c254ace95" copyFromDiagramUuid="916e8c1c09b645d799c474520df8c807" fromDiagramType="personDiagram" id="-8tr_-Q6rccU3uLQnp_V-97">
          <mxCell style="rounded=0;whiteSpace=wrap;html=1;fillColor=#fad9d5;strokeColor=#ae4132" vertex="1" parent="1">
            <mxGeometry x="580" y="427.5" width="20" height="20" as="geometry" />
          </mxCell>
        </object>
        <object originCellId="350c81a9517b44c18a6e5df7a547499f" label="L1" set3rd="" isCellStatic="true" isCopyBySelection="1" copyUuidPrevious="350c81a9517b44c18a6e5df7a547499f" copyFromDiagramUuid="916e8c1c09b645d799c474520df8c807" fromDiagramType="personDiagram" id="-8tr_-Q6rccU3uLQnp_V-98">
          <mxCell style="rounded=0;whiteSpace=wrap;html=1;fillColor=#fad9d5;strokeColor=#ae4132" vertex="1" parent="1">
            <mxGeometry x="1000" y="305" width="20" height="20" as="geometry" />
          </mxCell>
        </object>
        <object originCellId="36f5aba84b8046a4ef7ab4c17ca84070" label="L1" set3rd="" isCellStatic="true" isCopyBySelection="1" copyUuidPrevious="36f5aba84b8046a4ef7ab4c17ca84070" copyFromDiagramUuid="916e8c1c09b645d799c474520df8c807" fromDiagramType="personDiagram" id="-8tr_-Q6rccU3uLQnp_V-99">
          <mxCell style="rounded=0;whiteSpace=wrap;html=1;fillColor=#fad9d5;strokeColor=#ae4132" vertex="1" parent="1">
            <mxGeometry x="1000" y="345" width="20" height="20" as="geometry" />
          </mxCell>
        </object>
        <object originCellId="22d0f07e9a3a4005b511d34435a62abd" label="L1" set3rd="" isCellStatic="true" isCopyBySelection="1" copyUuidPrevious="22d0f07e9a3a4005b511d34435a62abd" copyFromDiagramUuid="916e8c1c09b645d799c474520df8c807" fromDiagramType="personDiagram" id="-8tr_-Q6rccU3uLQnp_V-100">
          <mxCell style="rounded=0;whiteSpace=wrap;html=1;fillColor=#fad9d5;strokeColor=#ae4132" vertex="1" parent="1">
            <mxGeometry x="1000" y="386.25" width="20" height="20" as="geometry" />
          </mxCell>
        </object>
        <object originCellId="f86d1916982b48eca5eb30e87cad04f2" label="L1" set3rd="" isCellStatic="true" isCopyBySelection="1" copyUuidPrevious="f86d1916982b48eca5eb30e87cad04f2" copyFromDiagramUuid="916e8c1c09b645d799c474520df8c807" fromDiagramType="personDiagram" id="-8tr_-Q6rccU3uLQnp_V-101">
          <mxCell style="rounded=0;whiteSpace=wrap;html=1;fillColor=#fad9d5;strokeColor=#ae4132" vertex="1" parent="1">
            <mxGeometry x="1000" y="426.25" width="20" height="20" as="geometry" />
          </mxCell>
        </object>
        <object originCellId="1375184f9c6d476280d1ecee76434b6a" label="L2" set3rd="" isCellStatic="true" isCopyBySelection="1" copyUuidPrevious="1375184f9c6d476280d1ecee76434b6a" copyFromDiagramUuid="916e8c1c09b645d799c474520df8c807" fromDiagramType="personDiagram" id="-8tr_-Q6rccU3uLQnp_V-102">
          <mxCell style="rounded=0;whiteSpace=wrap;html=1;fillColor=#fad9d5;strokeColor=#ae4132" vertex="1" parent="1">
            <mxGeometry x="640" y="238" width="20" height="412" as="geometry" />
          </mxCell>
        </object>
        <object originCellId="6403cae917a349aecd5d6dd5fca32254" label="L2" set3rd="" isCellStatic="true" isCopyBySelection="1" copyUuidPrevious="6403cae917a349aecd5d6dd5fca32254" copyFromDiagramUuid="916e8c1c09b645d799c474520df8c807" fromDiagramType="personDiagram" id="-8tr_-Q6rccU3uLQnp_V-103">
          <mxCell style="rounded=0;whiteSpace=wrap;html=1;fillColor=#fad9d5;strokeColor=#ae4132" vertex="1" parent="1">
            <mxGeometry x="940" y="239" width="20" height="411" as="geometry" />
          </mxCell>
        </object>
        <object originCellId="0ce3765c84bd422cebe4e4c2b84a5f75" label="core0" set3rd="" isCellStatic="true" isCopyBySelection="1" copyUuidPrevious="0ce3765c84bd422cebe4e4c2b84a5f75" copyFromDiagramUuid="916e8c1c09b645d799c474520df8c807" fromDiagramType="personDiagram" id="-8tr_-Q6rccU3uLQnp_V-104">
          <mxCell style="ellipse;whiteSpace=wrap;html=1;aspect=fixed;fillColor=#d0cee2;strokeColor=#56517e" vertex="1" parent="1">
            <mxGeometry x="290" y="567.5" width="40" height="40" as="geometry" />
          </mxCell>
        </object>
        <object originCellId="9532787701a44f6c8ae19ab4a4e63734" label="..." set3rd="" isCellStatic="true" isCopyBySelection="1" copyUuidPrevious="9532787701a44f6c8ae19ab4a4e63734" copyFromDiagramUuid="916e8c1c09b645d799c474520df8c807" fromDiagramType="personDiagram" id="-8tr_-Q6rccU3uLQnp_V-105">
          <mxCell style="text;html=1;align=center;verticalAlign=middle;resizable=0;points=[];autosize=1;strokeColor=none;fillColor=none" vertex="1" parent="1">
            <mxGeometry x="295" y="607.5" width="30" height="30" as="geometry" />
          </mxCell>
        </object>
        <object originCellId="dd72508474134e71e3cde01405b7bceb" label="" set3rd="" isCellStatic="true" isCopyBySelection="1" copyUuidPrevious="dd72508474134e71e3cde01405b7bceb" copyFromDiagramUuid="916e8c1c09b645d799c474520df8c807" fromDiagramType="personDiagram" id="-8tr_-Q6rccU3uLQnp_V-106">
          <mxCell style="rounded=1;whiteSpace=wrap;html=1;fillColor=#dae8fc;strokeColor=#6c8ebf" vertex="1" parent="1">
            <mxGeometry x="355" y="537.5" width="255" height="100" as="geometry" />
          </mxCell>
        </object>
        <object originCellId="598f4d3a56f8463abb513b4374bd6da6" label="lcore" set3rd="" isCellStatic="true" isCopyBySelection="1" copyUuidPrevious="598f4d3a56f8463abb513b4374bd6da6" copyFromDiagramUuid="916e8c1c09b645d799c474520df8c807" fromDiagramType="personDiagram" id="-8tr_-Q6rccU3uLQnp_V-107">
          <mxCell style="ellipse;whiteSpace=wrap;html=1;aspect=fixed;fillColor=#e1d5e7;strokeColor=#9673a6" vertex="1" parent="1">
            <mxGeometry x="377.5" y="570" width="35" height="35" as="geometry" />
          </mxCell>
        </object>
        <object originCellId="6ba3233321374c0aded26fde51fbba79" label="" set3rd="" isCellStatic="true" isCopyBySelection="1" copyUuidPrevious="6ba3233321374c0aded26fde51fbba79" copyFromDiagramUuid="916e8c1c09b645d799c474520df8c807" fromDiagramType="personDiagram" id="-8tr_-Q6rccU3uLQnp_V-108">
          <mxCell style="group" vertex="1" connectable="0" parent="1">
            <mxGeometry x="420" y="577.5" width="150" height="20" as="geometry" />
          </mxCell>
        </object>
        <object originCellId="2bdeab38738b4ce2cfd4905847727519" label="tcache" set3rd="" isCellStatic="true" isCopyBySelection="1" copyUuidPrevious="2bdeab38738b4ce2cfd4905847727519" copyFromDiagramUuid="916e8c1c09b645d799c474520df8c807" fromDiagramType="personDiagram" id="-8tr_-Q6rccU3uLQnp_V-109">
          <mxCell style="rounded=0;whiteSpace=wrap;html=1;fillColor=#fff2cc;strokeColor=#d6b656" vertex="1" parent="-8tr_-Q6rccU3uLQnp_V-108">
            <mxGeometry width="50" height="20" as="geometry" />
          </mxCell>
        </object>
        <object originCellId="4de690dd9e1846c6e98d72569ca22ba7" label="" set3rd="" isCellStatic="true" isCopyBySelection="1" copyUuidPrevious="4de690dd9e1846c6e98d72569ca22ba7" copyFromDiagramUuid="916e8c1c09b645d799c474520df8c807" fromDiagramType="personDiagram" id="-8tr_-Q6rccU3uLQnp_V-110">
          <mxCell style="rounded=0;whiteSpace=wrap;html=1;fillColor=#fff2cc;strokeColor=#d6b656" vertex="1" parent="-8tr_-Q6rccU3uLQnp_V-108">
            <mxGeometry x="50" width="20" height="20" as="geometry" />
          </mxCell>
        </object>
        <object originCellId="7d50b45a092c49c2cefef6e810cc378a" label="" set3rd="" isCellStatic="true" isCopyBySelection="1" copyUuidPrevious="7d50b45a092c49c2cefef6e810cc378a" copyFromDiagramUuid="916e8c1c09b645d799c474520df8c807" fromDiagramType="personDiagram" id="-8tr_-Q6rccU3uLQnp_V-111">
          <mxCell style="rounded=0;whiteSpace=wrap;html=1;fillColor=#fff2cc;strokeColor=#d6b656" vertex="1" parent="-8tr_-Q6rccU3uLQnp_V-108">
            <mxGeometry x="70" width="20" height="20" as="geometry" />
          </mxCell>
        </object>
        <object originCellId="081f3e5e0860411293f47fbe0e8e5c55" label="" set3rd="" isCellStatic="true" isCopyBySelection="1" copyUuidPrevious="081f3e5e0860411293f47fbe0e8e5c55" copyFromDiagramUuid="916e8c1c09b645d799c474520df8c807" fromDiagramType="personDiagram" id="-8tr_-Q6rccU3uLQnp_V-112">
          <mxCell style="rounded=0;whiteSpace=wrap;html=1;fillColor=#fff2cc;strokeColor=#d6b656" vertex="1" parent="-8tr_-Q6rccU3uLQnp_V-108">
            <mxGeometry x="90" width="20" height="20" as="geometry" />
          </mxCell>
        </object>
        <object originCellId="58d8e41edac9432c95a930b6295bf0ad" label="" set3rd="" isCellStatic="true" isCopyBySelection="1" copyUuidPrevious="58d8e41edac9432c95a930b6295bf0ad" copyFromDiagramUuid="916e8c1c09b645d799c474520df8c807" fromDiagramType="personDiagram" id="-8tr_-Q6rccU3uLQnp_V-113">
          <mxCell style="rounded=0;whiteSpace=wrap;html=1;fillColor=#fff2cc;strokeColor=#d6b656" vertex="1" parent="-8tr_-Q6rccU3uLQnp_V-108">
            <mxGeometry x="110" width="20" height="20" as="geometry" />
          </mxCell>
        </object>
        <object originCellId="9d5428768b404d1ef5b25502072e8c6c" label="" set3rd="" isCellStatic="true" isCopyBySelection="1" copyUuidPrevious="9d5428768b404d1ef5b25502072e8c6c" copyFromDiagramUuid="916e8c1c09b645d799c474520df8c807" fromDiagramType="personDiagram" id="-8tr_-Q6rccU3uLQnp_V-114">
          <mxCell style="rounded=0;whiteSpace=wrap;html=1;fillColor=#fff2cc;strokeColor=#d6b656" vertex="1" parent="-8tr_-Q6rccU3uLQnp_V-108">
            <mxGeometry x="130" width="20" height="20" as="geometry" />
          </mxCell>
        </object>
        <object originCellId="0bc80943acab4c3681969641507951de" label="L1" set3rd="" isCellStatic="true" isCopyBySelection="1" copyUuidPrevious="0bc80943acab4c3681969641507951de" copyFromDiagramUuid="916e8c1c09b645d799c474520df8c807" fromDiagramType="personDiagram" id="-8tr_-Q6rccU3uLQnp_V-115">
          <mxCell style="rounded=0;whiteSpace=wrap;html=1;fillColor=#fad9d5;strokeColor=#ae4132" vertex="1" parent="1">
            <mxGeometry x="580" y="577.5" width="20" height="20" as="geometry" />
          </mxCell>
        </object>
        <object originCellId="2c0b6062bba344b4e66845b3ed4b3a46" label="proc1" set3rd="" isCellStatic="true" isCopyBySelection="1" copyUuidPrevious="2c0b6062bba344b4e66845b3ed4b3a46" copyFromDiagramUuid="916e8c1c09b645d799c474520df8c807" fromDiagramType="personDiagram" id="-8tr_-Q6rccU3uLQnp_V-116">
          <mxCell style="text;html=1;align=center;verticalAlign=middle;resizable=0;points=[];autosize=1;strokeColor=none;fillColor=none" vertex="1" parent="1">
            <mxGeometry x="457.5" y="537.5" width="50" height="30" as="geometry" />
          </mxCell>
        </object>
        <object originCellId="28636a1e57ce475bf9d2d80ab68ba0e1" label="..." set3rd="" isCellStatic="true" isCopyBySelection="1" copyUuidPrevious="28636a1e57ce475bf9d2d80ab68ba0e1" copyFromDiagramUuid="916e8c1c09b645d799c474520df8c807" fromDiagramType="personDiagram" id="-8tr_-Q6rccU3uLQnp_V-117">
          <mxCell style="text;html=1;align=center;verticalAlign=middle;resizable=0;points=[];autosize=1;strokeColor=none;fillColor=none" vertex="1" parent="1">
            <mxGeometry x="1135" y="572.5" width="30" height="30" as="geometry" />
          </mxCell>
        </object>
        <object originCellId="71f21975aca14a2b9923677938eba987" label="" set3rd="" isCellStatic="true" isCopyBySelection="1" copyUuidPrevious="71f21975aca14a2b9923677938eba987" copyFromDiagramUuid="916e8c1c09b645d799c474520df8c807" fromDiagramType="personDiagram" id="-8tr_-Q6rccU3uLQnp_V-118">
          <mxCell style="endArrow=none;dashed=1;html=1;rounded=0;exitX=0.75;exitY=0;exitDx=0;exitDy=0;entryX=0.25;entryY=0;entryDx=0;entryDy=0;fillColor=#d5e8d4;strokeColor=#82b366;t=1745458685882" edge="1" parent="1" source="-8tr_-Q6rccU3uLQnp_V-7" target="-8tr_-Q6rccU3uLQnp_V-4">
            <mxGeometry width="50" height="50" relative="1" as="geometry">
              <mxPoint x="680" y="400" as="sourcePoint" />
              <mxPoint x="730" y="350" as="targetPoint" />
            </mxGeometry>
          </mxCell>
        </object>
        <object originCellId="c8824fa74f774b8fb244f2db62cb5307" label="" set3rd="" isCellStatic="true" isCopyBySelection="1" copyUuidPrevious="c8824fa74f774b8fb244f2db62cb5307" copyFromDiagramUuid="916e8c1c09b645d799c474520df8c807" fromDiagramType="personDiagram" id="-8tr_-Q6rccU3uLQnp_V-119">
          <mxCell style="endArrow=classic;html=1;rounded=0;entryX=0;entryY=0.5;entryDx=0;entryDy=0;exitX=1;exitY=0.5;exitDx=0;exitDy=0;t=1745458685882" edge="1" parent="1" source="-8tr_-Q6rccU3uLQnp_V-19" target="-8tr_-Q6rccU3uLQnp_V-10">
            <mxGeometry width="50" height="50" relative="1" as="geometry">
              <mxPoint x="440" y="390" as="sourcePoint" />
              <mxPoint x="490" y="340" as="targetPoint" />
            </mxGeometry>
          </mxCell>
        </object>
        <object originCellId="b5446dbc14a84a52fb34b708b498c406" label="" set3rd="" isCellStatic="true" isCopyBySelection="1" copyUuidPrevious="b5446dbc14a84a52fb34b708b498c406" copyFromDiagramUuid="916e8c1c09b645d799c474520df8c807" fromDiagramType="personDiagram" id="-8tr_-Q6rccU3uLQnp_V-120">
          <mxCell style="rounded=0;orthogonalLoop=1;jettySize=auto;html=1;entryX=0;entryY=0.5;entryDx=0;entryDy=0;exitX=1;exitY=0.5;exitDx=0;exitDy=0;t=1745458685882" edge="1" parent="1" source="-8tr_-Q6rccU3uLQnp_V-19" target="-8tr_-Q6rccU3uLQnp_V-29">
            <mxGeometry relative="1" as="geometry" />
          </mxCell>
        </object>
        <object originCellId="4382df270d814597cb7349e663d609a6" label="" set3rd="" isCellStatic="true" isCopyBySelection="1" copyUuidPrevious="4382df270d814597cb7349e663d609a6" copyFromDiagramUuid="916e8c1c09b645d799c474520df8c807" fromDiagramType="personDiagram" id="-8tr_-Q6rccU3uLQnp_V-121">
          <mxCell style="endArrow=classic;html=1;rounded=0;exitX=1;exitY=0.5;exitDx=0;exitDy=0;entryX=0;entryY=0.5;entryDx=0;entryDy=0;t=1745458685882" edge="1" parent="1" source="-8tr_-Q6rccU3uLQnp_V-19" target="-8tr_-Q6rccU3uLQnp_V-21">
            <mxGeometry width="50" height="50" relative="1" as="geometry">
              <mxPoint x="440" y="390" as="sourcePoint" />
              <mxPoint x="490" y="340" as="targetPoint" />
            </mxGeometry>
          </mxCell>
        </object>
        <object originCellId="fddaae6ba13049f19a2f0a59a6c1d07f" label="" set3rd="" isCellStatic="true" isCopyBySelection="1" copyUuidPrevious="fddaae6ba13049f19a2f0a59a6c1d07f" copyFromDiagramUuid="916e8c1c09b645d799c474520df8c807" fromDiagramType="personDiagram" id="-8tr_-Q6rccU3uLQnp_V-122">
          <mxCell style="endArrow=classic;html=1;rounded=0;exitX=1;exitY=0.5;exitDx=0;exitDy=0;entryX=-0.012;entryY=0.587;entryDx=0;entryDy=0;entryPerimeter=0;t=1745458685882" edge="1" parent="1" source="-8tr_-Q6rccU3uLQnp_V-19" target="-8tr_-Q6rccU3uLQnp_V-37">
            <mxGeometry width="50" height="50" relative="1" as="geometry">
              <mxPoint x="440" y="390" as="sourcePoint" />
              <mxPoint x="490" y="340" as="targetPoint" />
            </mxGeometry>
          </mxCell>
        </object>
        <object originCellId="a003d2405ff7431fc2e301c882ef4753" label="" set3rd="" isCellStatic="true" isCopyBySelection="1" copyUuidPrevious="a003d2405ff7431fc2e301c882ef4753" copyFromDiagramUuid="916e8c1c09b645d799c474520df8c807" fromDiagramType="personDiagram" id="-8tr_-Q6rccU3uLQnp_V-123">
          <mxCell style="rounded=0;orthogonalLoop=1;jettySize=auto;html=1;entryX=1;entryY=0.5;entryDx=0;entryDy=0;exitX=0;exitY=0.5;exitDx=0;exitDy=0;t=1745458685883" edge="1" parent="1" source="-8tr_-Q6rccU3uLQnp_V-59" target="-8tr_-Q6rccU3uLQnp_V-87">
            <mxGeometry relative="1" as="geometry" />
          </mxCell>
        </object>
        <object originCellId="2f3cfe50f8e643768a42c8736cb0aad0" label="" set3rd="" isCellStatic="true" isCopyBySelection="1" copyUuidPrevious="2f3cfe50f8e643768a42c8736cb0aad0" copyFromDiagramUuid="916e8c1c09b645d799c474520df8c807" fromDiagramType="personDiagram" id="-8tr_-Q6rccU3uLQnp_V-124">
          <mxCell style="endArrow=classic;html=1;rounded=0;exitX=0;exitY=0.5;exitDx=0;exitDy=0;entryX=1;entryY=0.5;entryDx=0;entryDy=0;t=1745458685883" edge="1" parent="1" source="-8tr_-Q6rccU3uLQnp_V-59" target="-8tr_-Q6rccU3uLQnp_V-88">
            <mxGeometry width="50" height="50" relative="1" as="geometry">
              <mxPoint x="1160" y="390" as="sourcePoint" />
              <mxPoint x="1210" y="340" as="targetPoint" />
            </mxGeometry>
          </mxCell>
        </object>
        <object originCellId="052a21fa6a6c48a8b896e7e305b13c04" label="" set3rd="" isCellStatic="true" isCopyBySelection="1" copyUuidPrevious="052a21fa6a6c48a8b896e7e305b13c04" copyFromDiagramUuid="916e8c1c09b645d799c474520df8c807" fromDiagramType="personDiagram" id="-8tr_-Q6rccU3uLQnp_V-125">
          <mxCell style="endArrow=classic;html=1;rounded=0;entryX=1;entryY=0.5;entryDx=0;entryDy=0;t=1745458685883" edge="1" parent="1" target="-8tr_-Q6rccU3uLQnp_V-89">
            <mxGeometry width="50" height="50" relative="1" as="geometry">
              <mxPoint x="1270" y="370" as="sourcePoint" />
              <mxPoint x="1210" y="340" as="targetPoint" />
            </mxGeometry>
          </mxCell>
        </object>
        <object originCellId="a7d257d48cd04d14e647275c25e82ebd" label="" set3rd="" isCellStatic="true" isCopyBySelection="1" copyUuidPrevious="a7d257d48cd04d14e647275c25e82ebd" copyFromDiagramUuid="916e8c1c09b645d799c474520df8c807" fromDiagramType="personDiagram" id="-8tr_-Q6rccU3uLQnp_V-126">
          <mxCell style="endArrow=classic;html=1;rounded=0;entryX=0.936;entryY=0.639;entryDx=0;entryDy=0;entryPerimeter=0;t=1745458685883" edge="1" parent="1" target="-8tr_-Q6rccU3uLQnp_V-90">
            <mxGeometry width="50" height="50" relative="1" as="geometry">
              <mxPoint x="1270" y="370" as="sourcePoint" />
              <mxPoint x="1210" y="340" as="targetPoint" />
            </mxGeometry>
          </mxCell>
        </object>
        <object originCellId="65276e05e25545d0ee3705fb25695f3b" label="" set3rd="" isCellStatic="true" isCopyBySelection="1" copyUuidPrevious="65276e05e25545d0ee3705fb25695f3b" copyFromDiagramUuid="916e8c1c09b645d799c474520df8c807" fromDiagramType="personDiagram" id="-8tr_-Q6rccU3uLQnp_V-127">
          <mxCell style="edgeStyle=orthogonalEdgeStyle;rounded=0;orthogonalLoop=1;jettySize=auto;html=1;exitX=1;exitY=0.5;exitDx=0;exitDy=0;entryX=0;entryY=0.5;entryDx=0;entryDy=0;t=1745458685883" edge="1" parent="1" source="-8tr_-Q6rccU3uLQnp_V-104" target="-8tr_-Q6rccU3uLQnp_V-107">
            <mxGeometry relative="1" as="geometry" />
          </mxCell>
        </object>
      </root>
    </mxGraphModel>
  </diagram>
</mxfile>
